<svg width="354" height="300" viewBox="0 0 354 300" fill="none" xmlns="http://www.w3.org/2000/svg">
<path d="M219.262 154.358H2.29248V297.922H219.262V154.358Z" fill="white"/>
<path d="M219.262 154.358H2.29248V297.922H219.262V154.358Z" stroke="#293279" stroke-width="3" stroke-miterlimit="10"/>
<path d="M32.7882 213.104H12.4834V192.8H32.7882V213.104ZM65.804 192.8H45.4993V213.104H65.804V192.8ZM98.8199 192.8H78.5151V213.104H98.8199V192.8ZM32.7882 225.815H12.4834V246.12H32.7882V225.815ZM65.804 225.815H45.4993V246.12H65.804V225.815ZM98.8199 225.815H78.5151V246.12H98.8199V225.815ZM32.7882 258.831H12.4834V279.136H32.7882V258.831ZM65.804 258.831H45.4993V279.136H65.804V258.831ZM98.8199 258.831H78.5151V279.136H98.8199V258.831Z" fill="#088EA0"/>
<path d="M32.7882 213.104H12.4834V192.8H32.7882V213.104ZM65.804 192.8H45.4993V213.104H65.804V192.8ZM98.8199 192.8H78.5151V213.104H98.8199V192.8ZM32.7882 225.815H12.4834V246.12H32.7882V225.815ZM65.804 225.815H45.4993V246.12H65.804V225.815ZM98.8199 225.815H78.5151V246.12H98.8199V225.815ZM32.7882 258.831H12.4834V279.136H32.7882V258.831ZM65.804 258.831H45.4993V279.136H65.804V258.831ZM98.8199 258.831H78.5151V279.136H98.8199V258.831Z" stroke="#293279" stroke-width="3" stroke-miterlimit="10"/>
<path d="M219.262 154.358H2.29248V182.19H219.262V154.358Z" fill="#F175A8"/>
<path d="M219.262 154.358H2.29248V182.19H219.262V154.358Z" stroke="#293279" stroke-width="3" stroke-miterlimit="10"/>
<path d="M22.3551 172.451V142.538C22.3551 136.782 27.0213 132.105 32.7881 132.105C38.5439 132.105 43.2211 136.771 43.2211 142.538V154.369" stroke="#293279" stroke-width="3" stroke-miterlimit="10"/>
<path d="M56.8897 172.451V142.538C56.8897 136.782 61.556 132.105 67.3227 132.105C73.0785 132.105 77.7557 136.771 77.7557 142.538V154.369" stroke="#293279" stroke-width="3" stroke-miterlimit="10"/>
<path d="M88.3868 172.451V142.538C88.3868 136.782 93.0531 132.105 98.8199 132.105C104.576 132.105 109.253 136.771 109.253 142.538V154.369" stroke="#293279" stroke-width="3" stroke-miterlimit="10"/>
<path d="M121.513 115.003H43.6944C38.2247 115.003 33.7896 110.568 33.7896 105.098V27.28C33.7896 21.8104 38.2247 17.3752 43.6944 17.3752H121.513C126.982 17.3752 131.418 21.8104 131.418 27.28V105.098C131.418 110.568 126.982 115.003 121.513 115.003Z" fill="#FDBD69"/>
<path d="M121.513 17.3752H43.6944C38.2241 17.3752 33.7896 21.8098 33.7896 27.28V105.098C33.7896 110.569 38.2241 115.003 43.6944 115.003H121.513C126.983 115.003 131.418 110.569 131.418 105.098V27.28C131.418 21.8098 126.983 17.3752 121.513 17.3752Z" stroke="#293279" stroke-width="3" stroke-miterlimit="10"/>
<path d="M71.7249 86.6865C71.7249 92.6954 76.5892 97.5597 82.5981 97.5597M82.5981 97.5597C88.607 97.5597 93.4713 92.6954 93.4713 86.6865C93.4713 80.6776 88.607 75.8132 82.5981 75.8132C76.5892 75.8132 71.7249 70.9489 71.7249 64.94C71.7249 58.9311 76.5892 54.0668 82.5981 54.0668M82.5981 97.5597V105.715M82.5981 54.0668C88.607 54.0668 93.4713 58.9311 93.4713 64.94M82.5981 54.0668V45.9119" stroke="white" stroke-width="4" stroke-miterlimit="10"/>
<path d="M121.513 17.3752H43.6944C38.2247 17.3752 33.7896 21.8104 33.7896 27.28V37.647H131.418V27.28C131.418 21.8104 126.982 17.3752 121.513 17.3752Z" fill="white"/>
<path d="M121.513 17.3752H43.6944C38.2247 17.3752 33.7896 21.8104 33.7896 27.28V37.647H131.418V27.28C131.418 21.8104 126.982 17.3752 121.513 17.3752Z" stroke="#293279" stroke-width="3" stroke-miterlimit="10"/>
<path d="M138.406 297.394L129.283 288.821C118.376 278.564 103.651 272.72 88.2328 272.533C72.2751 272.335 56.9117 278.211 45.6313 288.821L36.0567 297.823L138.406 297.394Z" fill="#FDBD69"/>
<path d="M138.406 297.394L129.283 288.821C118.376 278.564 103.651 272.72 88.2328 272.533C72.2751 272.335 56.9117 278.211 45.6313 288.821L36.0567 297.823L138.406 297.394Z" stroke="#293279" stroke-width="3" stroke-miterlimit="10"/>
<path d="M271.471 107.156H149.268V298.032H271.471V107.156Z" fill="#293279"/>
<path d="M271.471 107.156H149.268V298.032H271.471V107.156Z" stroke="#293279" stroke-width="3" stroke-linecap="round" stroke-linejoin="round"/>
<path d="M215.872 113.76H93.6694V298.032H215.872V113.76Z" fill="white"/>
<path d="M215.872 113.76H93.6694V298.032H215.872V113.76Z" stroke="#293279" stroke-width="3" stroke-miterlimit="10"/>
<path d="M173.018 272.324H129.227V298.043H173.018V272.324Z" fill="#75CCCF"/>
<path d="M173.018 272.324H129.227V298.043H173.018V272.324Z" stroke="#293279" stroke-width="3" stroke-miterlimit="10"/>
<path d="M201.235 120.858V254.572" stroke="#F175A8" stroke-width="3" stroke-miterlimit="10"/>
<path d="M201.235 148.69V178.625" stroke="#293279" stroke-width="3" stroke-miterlimit="10"/>
<path d="M182.647 120.858V254.572" stroke="#F175A8" stroke-width="3" stroke-miterlimit="10"/>
<path d="M164.07 120.858V254.572" stroke="#29A6DF" stroke-width="3" stroke-miterlimit="10"/>
<path d="M164.07 120.858V254.572" stroke="#F175A8" stroke-width="3" stroke-miterlimit="10"/>
<path d="M164.07 130.388V160.323" stroke="#293279" stroke-width="3" stroke-miterlimit="10"/>
<path d="M145.482 120.858V254.572" stroke="#F175A8" stroke-width="3" stroke-miterlimit="10"/>
<path d="M126.894 120.858V254.572" stroke="#F175A8" stroke-width="3" stroke-miterlimit="10"/>
<path d="M108.306 120.858V254.572" stroke="#F175A8" stroke-width="3" stroke-miterlimit="10"/>
<path d="M145.482 224.638V254.572" stroke="#293279" stroke-width="3" stroke-miterlimit="10"/>
<path d="M182.647 191.622V221.556" stroke="#293279" stroke-width="3" stroke-miterlimit="10"/>
<path d="M126.894 120.858V161.798" stroke="#293279" stroke-width="3" stroke-miterlimit="10"/>
<path d="M108.306 180.617V210.551" stroke="#293279" stroke-width="3" stroke-miterlimit="10"/>
<path d="M259.959 120.858V254.572" stroke="white" stroke-width="3" stroke-miterlimit="10"/>
<path d="M243.672 120.858V254.572" stroke="white" stroke-width="3" stroke-miterlimit="10"/>
<path d="M227.395 120.858V254.572" stroke="white" stroke-width="3" stroke-miterlimit="10"/>
<path d="M259.959 224.638V254.572" stroke="#FDBD69" stroke-width="3" stroke-miterlimit="10"/>
<path d="M243.672 120.858V161.798" stroke="#FDBD69" stroke-width="3" stroke-miterlimit="10"/>
<path d="M227.395 224.638V254.572" stroke="#FDBD69" stroke-width="3" stroke-miterlimit="10"/>
<path d="M149.136 107.156L179.951 70.3545H210.237H209.797H240.084L270.899 107.156" fill="#293279"/>
<path d="M240.084 70.3545H210.237H209.797H179.951L149.136 107.156H271.471L240.084 70.3545Z" fill="#293279"/>
<path d="M240.084 70.3545H210.237H209.797H179.951L149.136 107.156H271.471L240.084 70.3545Z" stroke="#293279" stroke-width="3" stroke-linecap="round" stroke-linejoin="round"/>
<path d="M185.057 70.3545H155.211H154.771H124.924L93.3943 107.156H215.872L185.057 70.3545Z" fill="#584FA1"/>
<path d="M185.057 70.3545H155.211H154.771H124.924L93.3943 107.156H215.872L185.057 70.3545Z" stroke="#293279" stroke-width="3" stroke-linecap="round" stroke-linejoin="round"/>
<path d="M163.971 280.456H178.157V264.609H151.48" fill="#293279"/>
<path d="M163.971 280.456H178.157V264.609H151.48" stroke="#293279" stroke-width="3" stroke-linecap="round" stroke-linejoin="round"/>
<path d="M137.305 264.609C129.47 264.609 123.12 270.959 123.12 278.795V280.456H163.971V278.795C163.971 270.959 170.321 264.609 178.157 264.609H137.305Z" fill="#F175A8"/>
<path d="M137.305 264.609C129.47 264.609 123.12 270.959 123.12 278.795V280.456H163.971V278.795C163.971 270.959 170.321 264.609 178.157 264.609H137.305Z" stroke="#293279" stroke-width="3" stroke-miterlimit="10"/>
<path d="M319.157 267.581C309.648 258.072 296.75 252.734 283.302 252.734C269.853 252.734 256.955 258.072 247.446 267.581L216.929 298.098H324.285L349.696 298.131L319.146 267.581H319.157Z" fill="#FDBD69"/>
<path d="M319.157 267.581C309.648 258.072 296.75 252.734 283.302 252.734C269.853 252.734 256.955 258.072 247.446 267.581L216.929 298.098H324.285L349.696 298.131L319.146 267.581H319.157Z" stroke="#293279" stroke-width="3" stroke-miterlimit="10"/>
<path d="M150.644 298.043V280.457" stroke="#293279" stroke-width="3" stroke-miterlimit="10"/>
<path d="M215.861 107.156H93.3943V115.003H215.861V107.156Z" fill="#F175A8"/>
<path d="M215.861 107.156H93.3943V115.003H215.861V107.156Z" stroke="#293279" stroke-width="3" stroke-linecap="round" stroke-linejoin="round"/>
<path d="M271.471 107.156H215.872V115.003H271.471V107.156Z" fill="#293279"/>
<path d="M271.471 107.156H215.872V115.003H271.471V107.156Z" stroke="#293279" stroke-width="3" stroke-linecap="round" stroke-linejoin="round"/>
<path d="M327.708 89.966H155.86C150.941 89.966 146.946 85.9821 146.946 81.0517V10.772C146.946 5.85259 150.93 1.85767 155.86 1.85767H327.708C332.627 1.85767 336.622 5.84158 336.622 10.772V81.0517C336.622 85.9711 332.638 89.966 327.708 89.966Z" fill="#75CCCF"/>
<path d="M327.697 1.86865H155.86C150.937 1.86865 146.946 5.85971 146.946 10.7829V81.0517C146.946 85.9749 150.937 89.966 155.86 89.966H327.697C332.62 89.966 336.611 85.9749 336.611 81.0517V10.7829C336.611 5.85971 332.62 1.86865 327.697 1.86865Z" stroke="#293279" stroke-width="3" stroke-miterlimit="10"/>
<path d="M327.708 1.86865H155.86C150.941 1.86865 146.946 5.85257 146.946 10.7829V37.6689H336.611V10.7829C336.611 5.86357 332.627 1.86865 327.697 1.86865" fill="white"/>
<path d="M327.708 1.86865H155.86C150.941 1.86865 146.946 5.85257 146.946 10.7829V37.6689H336.611V10.7829C336.611 5.86357 332.627 1.86865 327.697 1.86865H327.708Z" stroke="#293279" stroke-width="3" stroke-miterlimit="10"/>
<path d="M147.419 37.658H336.611" stroke="#293279" stroke-width="3" stroke-miterlimit="10"/>
<path d="M310.617 72.4346H262.469C257.131 72.4346 252.762 68.0655 252.762 62.7279C252.762 57.3903 257.131 53.0212 262.469 53.0212H310.617C315.954 53.0212 320.323 57.3903 320.323 62.7279C320.323 68.0655 315.954 72.4346 310.617 72.4346Z" fill="#293279"/>
<path d="M221.925 67.1852H164.07C161.396 67.1852 159.217 64.9951 159.217 62.3318C159.217 59.6686 161.407 57.4785 164.07 57.4785H221.925C224.599 57.4785 226.778 59.6686 226.778 62.3318C226.778 64.9951 224.588 67.1852 221.925 67.1852Z" fill="white"/>
<path d="M221.925 67.1852H164.07C161.396 67.1852 159.217 65.0061 159.217 62.3318C159.217 59.6576 161.407 57.4785 164.07 57.4785H221.925C224.599 57.4785 226.778 59.6686 226.778 62.3318C226.778 64.9951 224.588 67.1852 221.925 67.1852Z" stroke="#293279" stroke-width="3" stroke-miterlimit="10"/>
<path d="M193.3 19.5762H239.985" stroke="#293279" stroke-width="3" stroke-miterlimit="10"/>
<path d="M147.419 37.658H336.611" stroke="#293279" stroke-width="3" stroke-miterlimit="10"/>
<path d="M310.617 72.4346H262.469C257.131 72.4346 252.762 68.0655 252.762 62.7279C252.762 57.3903 257.131 53.0212 262.469 53.0212H310.617C315.954 53.0212 320.323 57.3903 320.323 62.7279C320.323 68.0655 315.954 72.4346 310.617 72.4346Z" fill="#293279"/>
<path d="M221.925 67.1852H164.07C161.396 67.1852 159.217 64.9951 159.217 62.3318C159.217 59.6686 161.407 57.4785 164.07 57.4785H221.925C224.599 57.4785 226.778 59.6686 226.778 62.3318C226.778 64.9951 224.588 67.1852 221.925 67.1852Z" fill="white"/>
<path d="M221.925 67.1852H164.07C161.396 67.1852 159.217 65.0061 159.217 62.3318C159.217 59.6576 161.407 57.4785 164.07 57.4785H221.925C224.599 57.4785 226.778 59.6686 226.778 62.3318C226.778 64.9951 224.588 67.1852 221.925 67.1852Z" stroke="#293279" stroke-width="3" stroke-miterlimit="10"/>
<path d="M17.6008 231.923L24.3251 238.647L40.2827 222.679" stroke="#293279" stroke-width="3" stroke-miterlimit="10"/>
<path d="M50.6167 231.923L57.3409 238.647L73.2986 222.679" stroke="#293279" stroke-width="3" stroke-miterlimit="10"/>
<path d="M301.515 202.957C301.515 219.663 293.415 233.211 283.434 233.211C273.452 233.211 265.352 219.663 265.352 202.957C265.352 186.251 273.452 172.704 283.434 172.704C293.415 172.704 301.515 186.251 301.515 202.957Z" fill="#088EA0"/>
<path d="M283.434 233.211C293.42 233.211 301.515 219.666 301.515 202.957C301.515 186.249 293.42 172.704 283.434 172.704C273.447 172.704 265.352 186.249 265.352 202.957C265.352 219.666 273.447 233.211 283.434 233.211Z" stroke="#293279" stroke-width="3" stroke-miterlimit="10"/>
<path d="M283.434 253.054V192.8" stroke="#293279" stroke-width="3" stroke-miterlimit="10"/>
<path d="M283.434 213.104L293.349 203.177" stroke="#293279" stroke-width="3" stroke-miterlimit="10"/>
<path d="M181.36 13.2701C180.435 12.5438 179.379 12.1256 178.289 11.9825C178.201 11.9715 178.124 11.9605 178.036 11.9495C177.937 11.9495 177.849 11.9385 177.75 11.9275C177.673 11.9275 177.585 11.9275 177.508 11.9275C177.398 11.9275 177.288 11.9275 177.178 11.9275C177.045 11.9275 176.924 11.9385 176.792 11.9495C176.704 11.9495 176.627 11.9715 176.539 11.9825C176.451 11.9935 176.352 12.0155 176.264 12.0265C176.187 12.0375 176.11 12.0596 176.033 12.0706C175.879 12.1036 175.736 12.1476 175.582 12.1916C175.516 12.2136 175.45 12.2356 175.395 12.2576C175.285 12.2907 175.175 12.3347 175.065 12.3787C174.998 12.4007 174.943 12.4227 174.888 12.4557C174.734 12.5218 174.58 12.5988 174.437 12.6759C174.393 12.6979 174.36 12.7199 174.316 12.7419C174.195 12.8079 174.074 12.885 173.953 12.962C173.909 12.995 173.865 13.017 173.821 13.05C173.678 13.1491 173.535 13.2591 173.392 13.3802L173.337 13.4352C173.216 13.5453 173.095 13.6553 172.974 13.7764C172.94 13.8094 172.907 13.8534 172.863 13.8864C172.731 14.0185 172.599 14.1616 172.489 14.3156C172.368 14.4697 172.258 14.6238 172.159 14.7889C172.137 14.8219 172.115 14.8549 172.093 14.8879C171.994 15.042 171.906 15.1961 171.829 15.3501C171.807 15.3942 171.785 15.4272 171.774 15.4712C171.697 15.6143 171.631 15.7683 171.576 15.9114C171.565 15.9554 171.543 15.9884 171.532 16.0215C171.51 16.0655 171.499 16.1205 171.488 16.1645V27.8301C171.818 27.8301 172.148 27.7751 172.489 27.621L180.061 23.9673C180.138 23.9343 180.204 23.8902 180.281 23.8572C180.402 23.7912 180.523 23.7252 180.644 23.6591C180.754 23.5931 180.864 23.5271 180.974 23.461C181.051 23.406 181.128 23.34 181.216 23.285C181.294 23.2299 181.36 23.1749 181.437 23.1199C181.514 23.0538 181.591 22.9878 181.668 22.9108C181.734 22.8557 181.8 22.7897 181.855 22.7347C181.932 22.6576 182.009 22.5806 182.086 22.4926C182.141 22.4375 182.196 22.3715 182.24 22.3055C182.295 22.2505 182.35 22.1954 182.394 22.1294C182.416 22.0964 182.438 22.0634 182.471 22.0193C182.504 21.9753 182.548 21.9203 182.581 21.8653C182.658 21.7552 182.746 21.6342 182.812 21.5241C182.823 21.5021 182.845 21.4691 182.856 21.4471C182.944 21.304 183.021 21.1719 183.098 21.0289C184.397 18.4096 183.737 15.152 181.349 13.2701M179.004 19.4661C178.322 20.3355 177.067 20.4786 176.198 19.7963C175.329 19.1139 175.186 17.8593 175.868 16.9899C176.55 16.1205 177.805 15.9774 178.674 16.6598C179.544 17.3421 179.687 18.5967 179.004 19.4661Z" fill="#088EA0"/>
<path d="M171.444 16.0215C171.444 16.0215 171.422 15.9444 171.4 15.9114C171.345 15.7573 171.279 15.6143 171.202 15.4602C171.18 15.4162 171.169 15.3831 171.147 15.3391C171.07 15.1851 170.982 15.02 170.883 14.8769C170.861 14.8439 170.839 14.8109 170.817 14.7779C170.706 14.6128 170.596 14.4587 170.486 14.3046C170.365 14.1506 170.233 14.0075 170.112 13.8754C170.079 13.8424 170.046 13.7984 170.002 13.7654C169.881 13.6443 169.76 13.5343 169.639 13.4242L169.584 13.3802C169.441 13.2591 169.298 13.1601 169.155 13.05C169.111 13.017 169.067 12.984 169.023 12.962C168.902 12.885 168.792 12.8079 168.67 12.7419C168.626 12.7199 168.593 12.6979 168.549 12.6759C168.395 12.5988 168.252 12.5218 168.098 12.4557C168.043 12.4337 167.977 12.4007 167.922 12.3787C167.812 12.3347 167.702 12.2907 167.592 12.2576C167.526 12.2356 167.46 12.2136 167.394 12.1916C167.251 12.1476 167.097 12.1036 166.943 12.0706C166.866 12.0485 166.789 12.0375 166.712 12.0265C166.612 12.0045 166.524 11.9935 166.436 11.9825C166.348 11.9715 166.271 11.9605 166.183 11.9495C166.051 11.9385 165.93 11.9275 165.798 11.9275C165.688 11.9275 165.578 11.9275 165.468 11.9275C165.391 11.9275 165.303 11.9275 165.226 11.9275C165.127 11.9275 165.039 11.9275 164.94 11.9495C164.852 11.9495 164.775 11.9715 164.687 11.9825C163.597 12.1256 162.541 12.5548 161.616 13.2811C159.228 15.163 158.568 18.4206 159.866 21.0399C159.943 21.1939 160.02 21.326 160.097 21.4691C160.108 21.4911 160.13 21.5241 160.141 21.5461C160.207 21.6672 160.295 21.7772 160.373 21.8873C160.406 21.9423 160.439 21.9863 160.483 22.0414C160.505 22.0744 160.527 22.1184 160.56 22.1514C160.604 22.2174 160.67 22.2725 160.714 22.3275C160.769 22.3935 160.824 22.4486 160.879 22.5146C160.956 22.5916 161.033 22.6797 161.11 22.7567C161.176 22.8227 161.242 22.8778 161.297 22.9328C161.374 22.9988 161.451 23.0759 161.528 23.1419C161.605 23.1969 161.671 23.2519 161.748 23.307C161.825 23.362 161.902 23.428 161.979 23.483C162.089 23.5601 162.199 23.6151 162.309 23.6811C162.43 23.7582 162.552 23.8132 162.684 23.8792C162.761 23.9123 162.827 23.9563 162.904 23.9893L170.475 27.643C170.806 27.8081 171.147 27.8632 171.477 27.8521V16.1865C171.477 16.1865 171.444 16.0875 171.433 16.0325M166.756 19.7963C165.886 20.4786 164.632 20.3355 163.949 19.4661C163.267 18.5967 163.41 17.3421 164.279 16.6598C165.149 15.9774 166.403 16.1205 167.086 16.9899C167.768 17.8593 167.625 19.1139 166.756 19.7963Z" fill="#584FA1"/>
<path d="M33.7896 37.658H131.418" stroke="#293279" stroke-width="3" stroke-miterlimit="10"/>
</svg>
